<mxfile host="app.diagrams.net" agent="Mozilla/5.0 (Windows NT 10.0; Win64; x64) AppleWebKit/537.36 (KHTML, like Gecko) Chrome/134.0.0.0 Safari/537.36 Edg/134.0.0.0" version="26.1.3">
  <diagram name="Page-1" id="azs9ysalOWHTsOaed1tu">
    <mxGraphModel dx="1236" dy="599" grid="0" gridSize="10" guides="1" tooltips="1" connect="1" arrows="1" fold="1" page="1" pageScale="1" pageWidth="850" pageHeight="1100" math="0" shadow="0">
      <root>
        <mxCell id="0" />
        <mxCell id="1" parent="0" />
        <mxCell id="TvHKWrw9bbUVRG6Nl0X0-28" value="GemHunter" style="swimlane;fontStyle=1;align=center;verticalAlign=top;childLayout=stackLayout;horizontal=1;startSize=26;horizontalStack=0;resizeParent=1;resizeParentMax=0;resizeLast=0;collapsible=1;marginBottom=0;whiteSpace=wrap;html=1;" parent="1" vertex="1">
          <mxGeometry x="566" y="230" width="204" height="202" as="geometry" />
        </mxCell>
        <mxCell id="TvHKWrw9bbUVRG6Nl0X0-29" value="- grid&lt;div&gt;- rows&lt;/div&gt;&lt;div&gt;- cols&lt;/div&gt;&lt;div&gt;- cnf&lt;/div&gt;&lt;div&gt;- known_cells&lt;/div&gt;" style="text;strokeColor=none;fillColor=none;align=left;verticalAlign=top;spacingLeft=4;spacingRight=4;overflow=hidden;rotatable=0;points=[[0,0.5],[1,0.5]];portConstraint=eastwest;whiteSpace=wrap;html=1;" parent="TvHKWrw9bbUVRG6Nl0X0-28" vertex="1">
          <mxGeometry y="26" width="204" height="77" as="geometry" />
        </mxCell>
        <mxCell id="TvHKWrw9bbUVRG6Nl0X0-30" value="" style="line;strokeWidth=1;fillColor=none;align=left;verticalAlign=middle;spacingTop=-1;spacingLeft=3;spacingRight=3;rotatable=0;labelPosition=right;points=[];portConstraint=eastwest;strokeColor=inherit;" parent="TvHKWrw9bbUVRG6Nl0X0-28" vertex="1">
          <mxGeometry y="103" width="204" height="8" as="geometry" />
        </mxCell>
        <mxCell id="TvHKWrw9bbUVRG6Nl0X0-31" value="+ get_unknown_neighbors(i, j)&lt;div&gt;+ variable(i, j)&lt;/div&gt;&lt;div&gt;+ generate_cnf()&lt;/div&gt;&lt;div&gt;+ add_exactly_k_traps(variables, k)&lt;/div&gt;&lt;div&gt;+ interpret_solution(model)&lt;/div&gt;" style="text;strokeColor=none;fillColor=none;align=left;verticalAlign=top;spacingLeft=4;spacingRight=4;overflow=hidden;rotatable=0;points=[[0,0.5],[1,0.5]];portConstraint=eastwest;whiteSpace=wrap;html=1;" parent="TvHKWrw9bbUVRG6Nl0X0-28" vertex="1">
          <mxGeometry y="111" width="204" height="91" as="geometry" />
        </mxCell>
        <mxCell id="TvHKWrw9bbUVRG6Nl0X0-36" value="" style="endArrow=none;html=1;edgeStyle=orthogonalEdgeStyle;rounded=0;exitX=0.558;exitY=0.005;exitDx=0;exitDy=0;exitPerimeter=0;entryX=0.5;entryY=0;entryDx=0;entryDy=0;" parent="1" source="DMOyLDxN6wNhE2lpOhT--6" target="TvHKWrw9bbUVRG6Nl0X0-28" edge="1">
          <mxGeometry relative="1" as="geometry">
            <mxPoint x="424.1600000000001" y="305.53499999999997" as="sourcePoint" />
            <mxPoint x="449" y="256" as="targetPoint" />
          </mxGeometry>
        </mxCell>
        <mxCell id="TvHKWrw9bbUVRG6Nl0X0-37" value="" style="endArrow=none;html=1;edgeStyle=orthogonalEdgeStyle;rounded=0;entryX=0.447;entryY=0.005;entryDx=0;entryDy=0;entryPerimeter=0;exitX=0.495;exitY=0.016;exitDx=0;exitDy=0;exitPerimeter=0;" parent="1" source="DMOyLDxN6wNhE2lpOhT--2" target="DMOyLDxN6wNhE2lpOhT--6" edge="1">
          <mxGeometry relative="1" as="geometry">
            <mxPoint x="166" y="333" as="sourcePoint" />
            <mxPoint x="410.8799999999999" y="306.37199999999996" as="targetPoint" />
            <Array as="points">
              <mxPoint x="169" y="287" />
              <mxPoint x="411" y="287" />
              <mxPoint x="411" y="307" />
            </Array>
          </mxGeometry>
        </mxCell>
        <mxCell id="TvHKWrw9bbUVRG6Nl0X0-38" value="GemHunterSolver" style="swimlane;fontStyle=1;align=center;verticalAlign=top;childLayout=stackLayout;horizontal=1;startSize=26;horizontalStack=0;resizeParent=1;resizeParentMax=0;resizeLast=0;collapsible=1;marginBottom=0;whiteSpace=wrap;html=1;" parent="1" vertex="1">
          <mxGeometry x="323" y="83" width="204" height="87" as="geometry" />
        </mxCell>
        <mxCell id="TvHKWrw9bbUVRG6Nl0X0-40" value="" style="line;strokeWidth=1;fillColor=none;align=left;verticalAlign=middle;spacingTop=-1;spacingLeft=3;spacingRight=3;rotatable=0;labelPosition=right;points=[];portConstraint=eastwest;strokeColor=inherit;" parent="TvHKWrw9bbUVRG6Nl0X0-38" vertex="1">
          <mxGeometry y="26" width="204" height="8" as="geometry" />
        </mxCell>
        <mxCell id="TvHKWrw9bbUVRG6Nl0X0-41" value="+ solve_with_pysat(game)&lt;div&gt;+ solve_bruteforce(game)&lt;/div&gt;&lt;div&gt;+ solve_backtracking(game)&lt;/div&gt;" style="text;strokeColor=none;fillColor=none;align=left;verticalAlign=top;spacingLeft=4;spacingRight=4;overflow=hidden;rotatable=0;points=[[0,0.5],[1,0.5]];portConstraint=eastwest;whiteSpace=wrap;html=1;" parent="TvHKWrw9bbUVRG6Nl0X0-38" vertex="1">
          <mxGeometry y="34" width="204" height="53" as="geometry" />
        </mxCell>
        <mxCell id="DMOyLDxN6wNhE2lpOhT--2" value="CNFClause" style="swimlane;fontStyle=1;align=center;verticalAlign=top;childLayout=stackLayout;horizontal=1;startSize=26;horizontalStack=0;resizeParent=1;resizeParentMax=0;resizeLast=0;collapsible=1;marginBottom=0;whiteSpace=wrap;html=1;" parent="1" vertex="1">
          <mxGeometry x="68" y="347" width="204" height="85" as="geometry" />
        </mxCell>
        <mxCell id="DMOyLDxN6wNhE2lpOhT--3" value="- literals" style="text;strokeColor=none;fillColor=none;align=left;verticalAlign=top;spacingLeft=4;spacingRight=4;overflow=hidden;rotatable=0;points=[[0,0.5],[1,0.5]];portConstraint=eastwest;whiteSpace=wrap;html=1;" parent="DMOyLDxN6wNhE2lpOhT--2" vertex="1">
          <mxGeometry y="26" width="204" height="23" as="geometry" />
        </mxCell>
        <mxCell id="DMOyLDxN6wNhE2lpOhT--4" value="" style="line;strokeWidth=1;fillColor=none;align=left;verticalAlign=middle;spacingTop=-1;spacingLeft=3;spacingRight=3;rotatable=0;labelPosition=right;points=[];portConstraint=eastwest;strokeColor=inherit;" parent="DMOyLDxN6wNhE2lpOhT--2" vertex="1">
          <mxGeometry y="49" width="204" height="8" as="geometry" />
        </mxCell>
        <mxCell id="DMOyLDxN6wNhE2lpOhT--5" value="+ satisfy(model)" style="text;strokeColor=none;fillColor=none;align=left;verticalAlign=top;spacingLeft=4;spacingRight=4;overflow=hidden;rotatable=0;points=[[0,0.5],[1,0.5]];portConstraint=eastwest;whiteSpace=wrap;html=1;" parent="DMOyLDxN6wNhE2lpOhT--2" vertex="1">
          <mxGeometry y="57" width="204" height="28" as="geometry" />
        </mxCell>
        <mxCell id="DMOyLDxN6wNhE2lpOhT--6" value="CNFSentence" style="swimlane;fontStyle=1;align=center;verticalAlign=top;childLayout=stackLayout;horizontal=1;startSize=26;horizontalStack=0;resizeParent=1;resizeParentMax=0;resizeLast=0;collapsible=1;marginBottom=0;whiteSpace=wrap;html=1;" parent="1" vertex="1">
          <mxGeometry x="315" y="306" width="204" height="126" as="geometry" />
        </mxCell>
        <mxCell id="DMOyLDxN6wNhE2lpOhT--7" value="- clauses" style="text;strokeColor=none;fillColor=none;align=left;verticalAlign=top;spacingLeft=4;spacingRight=4;overflow=hidden;rotatable=0;points=[[0,0.5],[1,0.5]];portConstraint=eastwest;whiteSpace=wrap;html=1;" parent="DMOyLDxN6wNhE2lpOhT--6" vertex="1">
          <mxGeometry y="26" width="204" height="23" as="geometry" />
        </mxCell>
        <mxCell id="DMOyLDxN6wNhE2lpOhT--8" value="" style="line;strokeWidth=1;fillColor=none;align=left;verticalAlign=middle;spacingTop=-1;spacingLeft=3;spacingRight=3;rotatable=0;labelPosition=right;points=[];portConstraint=eastwest;strokeColor=inherit;" parent="DMOyLDxN6wNhE2lpOhT--6" vertex="1">
          <mxGeometry y="49" width="204" height="8" as="geometry" />
        </mxCell>
        <mxCell id="DMOyLDxN6wNhE2lpOhT--9" value="+ add_clause(literals)&lt;div&gt;+ satisfy(model)&lt;/div&gt;&lt;div&gt;+ to_pysat_format(&lt;/div&gt;&lt;div&gt;+ print_cnf&lt;span style=&quot;background-color: transparent; color: light-dark(rgb(0, 0, 0), rgb(255, 255, 255));&quot;&gt;()&lt;/span&gt;&lt;/div&gt;&lt;div&gt;&lt;br&gt;&lt;/div&gt;" style="text;strokeColor=none;fillColor=none;align=left;verticalAlign=top;spacingLeft=4;spacingRight=4;overflow=hidden;rotatable=0;points=[[0,0.5],[1,0.5]];portConstraint=eastwest;whiteSpace=wrap;html=1;" parent="DMOyLDxN6wNhE2lpOhT--6" vertex="1">
          <mxGeometry y="57" width="204" height="69" as="geometry" />
        </mxCell>
      </root>
    </mxGraphModel>
  </diagram>
</mxfile>
